<svg id="_25-yrs-experience-icon" data-name="25-yrs-experience-icon" xmlns="http://www.w3.org/2000/svg" width="50" height="59.594" viewBox="0 0 50 59.594">
  <path id="Path_529" data-name="Path 529" d="M34.3,14.814a2.873,2.873,0,1,0-4.064,4.063l4.895,4.895a2.873,2.873,0,0,0,4.063,0L49.657,13.314A2.873,2.873,0,1,0,45.594,9.25L44.441,10.4A11.107,11.107,0,0,0,41.656,8.85V7.543A2.877,2.877,0,0,0,38.783,4.67h-9.01v-1A3.676,3.676,0,0,0,26.1,0H16.053a3.676,3.676,0,0,0-3.672,3.672V7.821a2.042,2.042,0,0,0,2.04,2.04H27.733a2.042,2.042,0,0,0,2.04-2.04v-1.4h9.009a1.126,1.126,0,0,1,1.125,1.125v.805a11.1,11.1,0,1,0,0,21.77v26.6a1.126,1.126,0,0,1-1.125,1.124H3.372a1.125,1.125,0,0,1-1.124-1.124V7.543A1.126,1.126,0,0,1,3.372,6.418H9.184a.874.874,0,1,0,0-1.749H3.372A2.877,2.877,0,0,0,.5,7.543V56.721a2.876,2.876,0,0,0,2.873,2.873H38.782a2.876,2.876,0,0,0,2.873-2.873V29.613A11.112,11.112,0,0,0,48.8,19.62a.874.874,0,1,0-1.748-.06,9.311,9.311,0,0,1-6.477,8.583.83.83,0,0,0-.146.048A9.361,9.361,0,1,1,37.705,9.874a9.341,9.341,0,0,1,5.486,1.778l-6.024,6.025Zm-6.28-6.993a.291.291,0,0,1-.291.291H14.422a.291.291,0,0,1-.291-.291V3.672a1.925,1.925,0,0,1,1.923-1.923H26.1a1.925,1.925,0,0,1,1.923,1.923ZM46.83,10.487a1.125,1.125,0,1,1,1.59,1.59L37.962,22.536a1.124,1.124,0,0,1-1.59,0l-4.895-4.895a1.125,1.125,0,1,1,1.591-1.59l3.481,3.481a.874.874,0,0,0,1.236,0Zm0,0" transform="translate(-0.499 0)" fill="#0260c7"/>
  <path id="Path_532" data-name="Path 532" d="M106.644,225.143h9.043a.886.886,0,0,0,0-1.748h-9.043a.886.886,0,0,0,0,1.748Zm0,0" transform="translate(-93.634 -197.393)" fill="#cd1813"/>
  <path id="Path_534" data-name="Path 534" d="M106.776,316.245h7.167a.874.874,0,0,0,0-1.749h-7.167a.874.874,0,0,0,0,1.749Zm0,0" transform="translate(-93.634 -277.891)" fill="#cd1813"/>
  <path id="Path_535" data-name="Path 535" d="M106.776,372.6h10.653a.874.874,0,1,0,0-1.749H106.776a.874.874,0,0,0,0,1.749Zm0,0" transform="translate(-93.634 -327.683)" fill="#0260c7"/>
  <g id="Group_3166" data-name="Group 3166">
    <path id="Path_530" data-name="Path 530" d="M117.43,188.547H106.777a.874.874,0,0,0,0,1.748H117.43a.874.874,0,1,0,0-1.748Zm0,0" transform="translate(-93.635 -166.601)" fill="#0260c7"/>
    <path id="Path_533" data-name="Path 533" d="M121.109,279.648H106.776a.874.874,0,0,0,0,1.749h14.333a.874.874,0,0,0,0-1.749Zm0,0" transform="translate(-93.634 -247.099)" fill="#0260c7"/>
    <path id="Path_536" data-name="Path 536" d="M106.776,407.444h14.333a.874.874,0,1,0,0-1.748H106.776a.874.874,0,0,0,0,1.748Zm0,0" transform="translate(-93.634 -358.475)" fill="#cd1813"/>
  </g>
  <path id="Path_537" data-name="Path 537" d="M37.664,182.035a3.531,3.531,0,1,0,3.531,3.531A3.535,3.535,0,0,0,37.664,182.035Zm0,5.314a1.783,1.783,0,1,1,1.783-1.783A1.785,1.785,0,0,1,37.664,187.349Zm0,0" transform="translate(-30.218 -160.847)" fill="#cd1813"/>
  <path id="Path_538" data-name="Path 538" d="M37.664,274.242a3.531,3.531,0,1,0,3.531,3.531A3.536,3.536,0,0,0,37.664,274.242Zm0,5.315a1.783,1.783,0,1,1,1.783-1.783A1.785,1.785,0,0,1,37.664,279.557Zm0,0" transform="translate(-30.218 -242.322)" fill="#cd1813"/>
  <path id="Path_539" data-name="Path 539" d="M37.664,365.441a3.531,3.531,0,1,0,3.531,3.531A3.535,3.535,0,0,0,37.664,365.441Zm0,5.314a1.783,1.783,0,1,1,1.783-1.783A1.785,1.785,0,0,1,37.664,370.755Zm0,0" transform="translate(-30.218 -322.906)" fill="#cd1813"/>
</svg>
