<svg id="call-icon" xmlns="http://www.w3.org/2000/svg" width="40" height="40" viewBox="0 0 40 40">
  <circle id="Ellipse_33" data-name="Ellipse 33" cx="20" cy="20" r="20" fill="#cd1813"/>
  <g id="call" transform="translate(12.596 12.096)">
    <g id="Group_3131" data-name="Group 3131">
      <path id="Path_472" data-name="Path 472" d="M13.62,9.72A8.408,8.408,0,0,1,10.98,9.3a1.207,1.207,0,0,0-1.174.247L8.141,10.8A9.2,9.2,0,0,1,4,6.668l1.22-1.622a1.2,1.2,0,0,0,.294-1.213A8.421,8.421,0,0,1,5.1,1.188,1.19,1.19,0,0,0,3.908,0H1.188A1.19,1.19,0,0,0,0,1.188a13.636,13.636,0,0,0,13.62,13.62,1.19,1.19,0,0,0,1.188-1.188V10.908A1.19,1.19,0,0,0,13.62,9.72Z" fill="#fff"/>
    </g>
  </g>
</svg>
