<svg xmlns="http://www.w3.org/2000/svg" width="22.275" height="22.359" viewBox="0 0 22.275 22.359">
  <path id="cancel-mark-icon" d="M.567,17.227l2.077,2.106a1.971,1.971,0,0,0,2.788.02l4.534-4.47,4.468,4.533a1.971,1.971,0,0,0,2.788.02l2.105-2.075a1.971,1.971,0,0,0,.02-2.788L14.878,10.04l4.534-4.469a1.972,1.972,0,0,0,.019-2.788L17.356.676a1.972,1.972,0,0,0-2.788-.02l-4.535,4.47L5.565.592A1.973,1.973,0,0,0,2.777.572L.672,2.648a1.972,1.972,0,0,0-.02,2.788L5.12,9.969.587,14.44A1.971,1.971,0,0,0,.567,17.227Z" transform="translate(1.096 1.175)" fill="#cd1813" stroke="#fff" stroke-width="2"/>
</svg>
