<svg xmlns="http://www.w3.org/2000/svg" width="81.5" height="66.437" viewBox="0 0 81.5 66.437">
  <g id="image-icon" transform="translate(0.75 0.75)">
    <g id="Icon" transform="translate(0 -48.2)">
      <path id="Path_483" data-name="Path 483" d="M72.635,48.2H7.365A7.364,7.364,0,0,0,0,55.565v50.208a7.364,7.364,0,0,0,7.365,7.365H72.635A7.364,7.364,0,0,0,80,105.773V55.565A7.364,7.364,0,0,0,72.635,48.2ZM4.687,55.565a2.675,2.675,0,0,1,2.677-2.677H72.635a2.675,2.675,0,0,1,2.677,2.677V85.052L64.251,73.99a2.343,2.343,0,0,0-3.314,0L42.51,92.417l-8.385-8.384a2.344,2.344,0,0,0-3.315,0L6.529,108.315a2.671,2.671,0,0,1-1.841-2.542ZM72.635,108.45H13.023L32.469,89l8.385,8.384a2.344,2.344,0,0,0,3.315,0L62.594,78.962,75.312,91.681v14.092A2.675,2.675,0,0,1,72.635,108.45Z" transform="translate(0 0)" fill="#0260c7" stroke="#fff" stroke-width="1.5"/>
      <path id="Path_484" data-name="Path 484" d="M74.142,132.217a9.875,9.875,0,1,0-9.875-9.875A9.886,9.886,0,0,0,74.142,132.217Zm0-15.062a5.187,5.187,0,1,1-5.188,5.188A5.193,5.193,0,0,1,74.142,117.154Z" transform="translate(-54.225 -54.225)" fill="#cd1813" stroke="#fff" stroke-width="1.5"/>
    </g>
  </g>
</svg>
