<svg xmlns="http://www.w3.org/2000/svg" width="30" height="30" viewBox="0 0 30 30">
  <g id="instagram-icon" transform="translate(-650 -4680)">
    <rect id="Rectangle_30" data-name="Rectangle 30" width="30" height="30" rx="15" transform="translate(650 4680)" fill="none" opacity="0.1"/>
    <g id="instagram-symbol" transform="translate(655.999 4686)">
      <path id="Path_203" data-name="Path 203" d="M17.321.68A2.222,2.222,0,0,0,15.693,0H2.31A2.222,2.222,0,0,0,.681.68,2.221,2.221,0,0,0,0,2.309V15.691a2.222,2.222,0,0,0,.68,1.629A2.223,2.223,0,0,0,2.31,18H15.692A2.321,2.321,0,0,0,18,15.691V2.309A2.222,2.222,0,0,0,17.321.68ZM6.464,6.486A3.536,3.536,0,0,1,9.013,5.461a3.551,3.551,0,0,1,2.56,1.025,3.321,3.321,0,0,1,1.06,2.479,3.32,3.32,0,0,1-1.06,2.478,3.549,3.549,0,0,1-2.56,1.026,3.537,3.537,0,0,1-2.549-1.026A3.321,3.321,0,0,1,5.4,8.965,3.321,3.321,0,0,1,6.464,6.486Zm9.5,8.725a.683.683,0,0,1-.211.51.7.7,0,0,1-.5.205H2.72a.7.7,0,0,1-.715-.715V7.617H3.657a5.046,5.046,0,0,0-.234,1.535A5.146,5.146,0,0,0,5.064,12.99a5.476,5.476,0,0,0,3.949,1.588,5.633,5.633,0,0,0,2.813-.727,5.472,5.472,0,0,0,2.039-1.975,5.193,5.193,0,0,0,.75-2.725,5.047,5.047,0,0,0-.235-1.535h1.582v7.594h0Zm0-10.465a.8.8,0,0,1-.809.809H13.114a.8.8,0,0,1-.809-.809V2.813a.787.787,0,0,1,.234-.568A.772.772,0,0,1,13.114,2h2.039a.771.771,0,0,1,.574.24.786.786,0,0,1,.235.568Z" transform="translate(0 0)" fill="#fff"/>
    </g>
  </g>
</svg>
