<svg id="mail-icon" xmlns="http://www.w3.org/2000/svg" width="30" height="30" viewBox="0 0 30 30">
  <circle id="Ellipse_33" data-name="Ellipse 33" cx="15" cy="15" r="15" fill="#fff" opacity="0.2"/>
  <g id="Icons" transform="translate(3.915 2.753)">
    <path id="Path_501" data-name="Path 501" d="M34.036,277.251l-1.1,1.1a1.213,1.213,0,0,1-1.681,0l-1.1-1.1-3.937,3.95a1.139,1.139,0,0,0,.48.108H37.493a1.138,1.138,0,0,0,.48-.108Z" transform="translate(-21.014 -264.46)" fill="#fff"/>
    <path id="Path_502" data-name="Path 502" d="M37.5,76H26.708a1.139,1.139,0,0,0-.48.108l4.207,4.221h0L31.8,81.7a.46.46,0,0,0,.595,0l1.368-1.372h0l4.207-4.221A1.138,1.138,0,0,0,37.5,76Z" transform="translate(-21.017 -68.354)" fill="#fff"/>
    <path id="Path_503" data-name="Path 503" d="M.122,101.212a1.136,1.136,0,0,0-.122.506v6.9a1.136,1.136,0,0,0,.122.506l3.944-3.957Z" transform="translate(4.541 -92.921)" fill="#fff"/>
    <path id="Path_504" data-name="Path 504" d="M356.877,101.21l-3.944,3.957,3.944,3.957a1.136,1.136,0,0,0,.122-.506v-6.9A1.136,1.136,0,0,0,356.877,101.21Z" transform="translate(-339.37 -92.92)" fill="#fff"/>
  </g>
</svg>
