<svg id="phone-icon" xmlns="http://www.w3.org/2000/svg" width="30" height="30" viewBox="0 0 30 30">
  <circle id="Ellipse_33" data-name="Ellipse 33" cx="15" cy="15" r="15" fill="#fff" opacity="0.2"/>
  <path id="Call_Icon" data-name="Call Icon" d="M10.526,7.512a6.5,6.5,0,0,1-2.041-.325.933.933,0,0,0-.907.191L6.292,8.35a7.112,7.112,0,0,1-3.2-3.2L4.037,3.9a.925.925,0,0,0,.228-.937A6.508,6.508,0,0,1,3.938.918.919.919,0,0,0,3.02,0H.918A.919.919,0,0,0,0,.918,10.538,10.538,0,0,0,10.526,11.445a.919.919,0,0,0,.918-.918V8.43A.919.919,0,0,0,10.526,7.512Z" transform="translate(9.278 9.278)" fill="#fff"/>
</svg>
