<svg id="project-completed-icon" xmlns="http://www.w3.org/2000/svg" width="50" height="68" viewBox="0 0 50 68">
  <path id="Path_540" data-name="Path 540" d="M49.848,50.482a2.238,2.238,0,0,0,.562.126c.061,0,.123.007.183.007a2.257,2.257,0,0,0,1.477-.544l5.136-4.386a2.263,2.263,0,0,0,.249-3.2l-4-4.65V2.267A2.27,2.27,0,0,0,51.18,0H22.106A2.293,2.293,0,0,0,20.5.664L13.211,7.933a2.281,2.281,0,0,0-.666,1.6V36.348L8.8,39.553a2.268,2.268,0,0,0-.248,3.2l4.409,5.122a2.275,2.275,0,0,0,1.729.793,2.328,2.328,0,0,0,.455-.049l1.03,1.23a3.347,3.347,0,0,0,2.483,5.032A3.344,3.344,0,0,0,21.6,58.308a3.337,3.337,0,0,0,2.941,3.422,3.375,3.375,0,0,0,4.6,3.232l1.591,1.858a3.376,3.376,0,0,0,2.319,1.171q.133.01.266.01a3.369,3.369,0,0,0,2.2-.813,3.309,3.309,0,0,0,1.152-2.118A3.4,3.4,0,0,0,40.1,62.133,3.387,3.387,0,0,0,43.532,59.2a3.528,3.528,0,0,0,2.273-.813,3.394,3.394,0,0,0,.372-4.771ZM36.621,42.493a1.134,1.134,0,1,0-1.483-1.717l-.858.735h0l-6,5.131a1.122,1.122,0,1,1-1.462-1.7l7.147-6.11a1.114,1.114,0,0,1,.659-.269l4.311-.28,9.194,10.684L44.7,51.894Zm19.1,1.469-5.136,4.384L39.1,35l5.136-4.4L55.725,43.961ZM20.5,3.869V7.933H16.424ZM14.818,10.2H20.5a2.27,2.27,0,0,0,2.273-2.267V2.267H51.18V35.195l-5.217-6.068a2.282,2.282,0,0,0-3.206-.248l-5.136,4.4a2.262,2.262,0,0,0-.487,2.853l-2.658.172a3.414,3.414,0,0,0-1.989.809l-.7.6-2.752-.721a2.234,2.234,0,0,0-.151-2.736l-4.4-5.122a2.284,2.284,0,0,0-3.206-.248l-6.465,5.527ZM10.272,41.275,22.76,30.6l4.4,5.123h0L14.68,46.4Zm8.085,9.407a1.122,1.122,0,1,1-.122,1.587,1.113,1.113,0,0,1,.123-1.582Zm2.552,4.193a1.123,1.123,0,1,1,1.85.937,1.149,1.149,0,0,1-.816.265,1.118,1.118,0,0,1-1.034-1.2Zm3.329,2.658a1.128,1.128,0,0,1,1.591.121h0a1.121,1.121,0,0,1-.123,1.58,1.138,1.138,0,0,1-.818.265,1.12,1.12,0,0,1-.645-1.967Zm2.819,5a1.123,1.123,0,1,1,1.585.121,1.13,1.13,0,0,1-1.584-.122Zm17.273-5.868a1.128,1.128,0,0,1-1.585-.12l-2.2-2.567a1.135,1.135,0,0,0-1.727,1.473l2.206,2.566h0a1.123,1.123,0,0,1-1.7,1.459h0l-1.47-1.71a1.135,1.135,0,0,0-1.727,1.473l1.47,1.711h0a1.121,1.121,0,0,1-.124,1.58,1.149,1.149,0,0,1-.816.265,1.11,1.11,0,0,1-.766-.385h0l-.734-.856a1.135,1.135,0,0,0-1.727,1.473l.735.856h0a1.091,1.091,0,0,1,.258.831,1.07,1.07,0,0,1-.382.749,1.09,1.09,0,0,1-.816.263,1.115,1.115,0,0,1-.767-.385l-1.6-1.864a3.356,3.356,0,0,0-2.5-5.021A3.337,3.337,0,0,0,25.4,55.036a3.354,3.354,0,0,0-.8-2.283h0a3.378,3.378,0,0,0-2.137-1.139,3.366,3.366,0,0,0-4.574-3.238l-.85-1.02,10-8.556,2.644.692-4.354,3.724a3.39,3.39,0,1,0,4.419,5.142l5.15-4.386L44.451,55.08a1.1,1.1,0,0,1,.261.832,1.072,1.072,0,0,1-.381.755Z" transform="translate(-8.003)" fill="#0260c7"/>
  <path id="Path_541" data-name="Path 541" d="M18.469,16.468a1.138,1.138,0,0,0,.8.332h.081a1.137,1.137,0,0,0,.828-.453l3.409-4.533a1.135,1.135,0,0,0-1.818-1.36L19.15,13.942l-.21-.21a1.135,1.135,0,1,0-1.607,1.6Z" transform="translate(-6.776 1.333)" fill="#cd1813"/>
  <path id="Path_542" data-name="Path 542" d="M32.136,12.267H43.5A1.133,1.133,0,1,0,43.5,10H32.136a1.133,1.133,0,1,0,0,2.267Z" transform="translate(-5.867 1.333)" fill="#0260c7"/>
  <path id="Path_543" data-name="Path 543" d="M27.136,12.267h1.136a1.133,1.133,0,1,0,0-2.267H27.136a1.133,1.133,0,1,0,0,2.267Z" transform="translate(-6.549 1.333)" fill="#cd1813"/>
  <path id="Path_545" data-name="Path 545" d="M23.591,19.813a1.135,1.135,0,0,0-1.818-1.36L19.15,21.942l-.21-.21a1.135,1.135,0,1,0-1.607,1.6l1.136,1.133a1.138,1.138,0,0,0,.8.332h.081a1.137,1.137,0,0,0,.828-.453Z" transform="translate(-6.776 2.4)" fill="#cd1813"/>
  <path id="Path_546" data-name="Path 546" d="M43.5,18H32.136a1.133,1.133,0,1,0,0,2.267H43.5A1.133,1.133,0,1,0,43.5,18Z" transform="translate(-5.867 4.4)" fill="#0260c7"/>
  <path id="Path_547" data-name="Path 547" d="M27.136,20.267h1.136a1.133,1.133,0,1,0,0-2.267H27.136a1.133,1.133,0,1,0,0,2.267Z" transform="translate(-6.549 4.4)" fill="#cd1813"/>
</svg>
