<svg xmlns="http://www.w3.org/2000/svg" xmlns:xlink="http://www.w3.org/1999/xlink" width="79.999" height="79.999" viewBox="0 0 79.999 79.999">
  <defs>
    <filter id="Out_Circle">
      <feOffset dy="3" input="SourceAlpha"/>
      <feGaussianBlur stdDeviation="3" result="blur"/>
      <feFlood flood-opacity="0.161" result="color"/>
      <feComposite operator="out" in="SourceGraphic" in2="blur"/>
      <feComposite operator="in" in="color"/>
      <feComposite operator="in" in2="SourceGraphic"/>
    </filter>
  </defs>
  <g id="right-mark-icon" transform="translate(-260.001 -883)">
    <circle id="Blue_BG" data-name="Blue BG" cx="20" cy="20" r="20" transform="translate(280 903)" fill="#0260c7"/>
    <path id="Check_Icon" data-name="Check Icon" d="M7.658,15.637a1.021,1.021,0,0,1-1.444,0L.449,9.87a1.531,1.531,0,0,1,0-2.166l.722-.722a1.531,1.531,0,0,1,2.166,0l3.6,3.6L16.663.855a1.531,1.531,0,0,1,2.166,0l.722.722a1.531,1.531,0,0,1,0,2.166Zm0,0" transform="translate(290 914.829)" fill="#fff"/>
    <g data-type="innerShadowGroup">
      <path id="Out_Circle-2" data-name="Out Circle" d="M76.642,23.568l-8.167-4.887-1.84-7.617A7.017,7.017,0,0,0,59.257,5.7l-9.345.723-5.353-4.74a7.006,7.006,0,0,0-9.119,0L30.087,6.427,20.741,5.7a6.979,6.979,0,0,0-7.292,5.083l-2.7,8.4L3.358,23.566A7,7,0,0,0,.539,32.24l3.188,7.727L.541,47.692a7,7,0,0,0,2.817,8.672l8.159,4.852,1.847,7.651a7.017,7.017,0,0,0,7.377,5.36l9.244-.714,5.454,4.8a7,7,0,0,0,9.119,0l5.454-4.8,9.244.714a6.965,6.965,0,0,0,7.377-5.36l1.84-7.617,8.167-4.887a7,7,0,0,0,2.817-8.672l-3.188-7.725,3.191-7.729a7,7,0,0,0-2.82-8.67ZM40,65.781A25.781,25.781,0,1,1,65.78,40,25.81,25.81,0,0,1,40,65.781Z" transform="translate(260.001 883.001)" fill="#0260c7"/>
      <g transform="matrix(1, 0, 0, 1, 260, 883)" filter="url(#Out_Circle)">
        <path id="Out_Circle-3" data-name="Out Circle" d="M76.642,23.568l-8.167-4.887-1.84-7.617A7.017,7.017,0,0,0,59.257,5.7l-9.345.723-5.353-4.74a7.006,7.006,0,0,0-9.119,0L30.087,6.427,20.741,5.7a6.979,6.979,0,0,0-7.292,5.083l-2.7,8.4L3.358,23.566A7,7,0,0,0,.539,32.24l3.188,7.727L.541,47.692a7,7,0,0,0,2.817,8.672l8.159,4.852,1.847,7.651a7.017,7.017,0,0,0,7.377,5.36l9.244-.714,5.454,4.8a7,7,0,0,0,9.119,0l5.454-4.8,9.244.714a6.965,6.965,0,0,0,7.377-5.36l1.84-7.617,8.167-4.887a7,7,0,0,0,2.817-8.672l-3.188-7.725,3.191-7.729a7,7,0,0,0-2.82-8.67ZM40,65.781A25.781,25.781,0,1,1,65.78,40,25.81,25.81,0,0,1,40,65.781Z" transform="translate(0 0)" fill="#fff"/>
      </g>
    </g>
  </g>
</svg>
