<svg id="satisfied-customers-icon" xmlns="http://www.w3.org/2000/svg" width="50" height="52.984" viewBox="0 0 50 52.984">
  <path id="Path_514" data-name="Path 514" d="M146.875,56.169l-.9.325a4.221,4.221,0,0,0-2.693,3.158l-.3,1.593a2.687,2.687,0,0,0,2.639,3.193h7.767a2.688,2.688,0,0,0,2.646-3.161l-.284-1.585a4.212,4.212,0,0,0-2.7-3.208l-.95-.344v-1.4a.771.771,0,0,0-.01-.115,3.809,3.809,0,0,0,1.09-2.652V49.886a3.693,3.693,0,0,0-7.387,0v2.151a3.684,3.684,0,0,0,1.088,2.607.771.771,0,0,0-.007.1Zm7.348,3.8.284,1.585a1.136,1.136,0,0,1-1.118,1.335h-7.767a1.135,1.135,0,0,1-1.115-1.349l.3-1.593a2.661,2.661,0,0,1,1.7-1.991l.587-.213c.015.015.029.03.045.044a3.58,3.58,0,0,0,4.693,0,.765.765,0,0,0,.067-.067l.619.224A2.654,2.654,0,0,1,154.223,59.966Zm-6.878-10.08a2.14,2.14,0,0,1,4.212-.533c-.1.049-.2.095-.307.137a2.58,2.58,0,0,1-1.945.177.776.776,0,1,0-.891,1.271,2.57,2.57,0,0,0,1.481.4,5.165,5.165,0,0,0,1.733-.33v.965a2.248,2.248,0,0,1-.673,1.594,2.169,2.169,0,0,1-.669.449l-.05.021a2,2,0,0,1-.791.142,2.151,2.151,0,0,1-2.1-2.14Zm2.069,5.844h.071a3.6,3.6,0,0,0,1.062-.16v1.242a2.027,2.027,0,0,1-2.12,0V55.573A3.643,3.643,0,0,0,149.415,55.73Z" transform="translate(-132.634 -41.413)" fill="#cd1813"/>
  <path id="Path_515" data-name="Path 515" d="M81.349,337.456H99.567c.323,0,.585-.347.585-.776s-.262-.776-.585-.776H81.349c-.323,0-.585.347-.585.776S81.026,337.456,81.349,337.456Z" transform="translate(-72.898 -302.143)" fill="#0260c7"/>
  <path id="Path_548" data-name="Path 548" d="M81.045,337.456h8.766c.155,0,.281-.347.281-.776s-.126-.776-.281-.776H81.045c-.155,0-.281.347-.281.776S80.89,337.456,81.045,337.456Z" transform="translate(-72.898 -299.328)" fill="#0260c7"/>
  <path id="Path_517" data-name="Path 517" d="M81.182,418.336H94.208c.231,0,.418-.347.418-.776s-.187-.776-.418-.776H81.182c-.231,0-.418.347-.418.776S80.951,418.336,81.182,418.336Z" transform="translate(-72.898 -375.838)" fill="#0260c7"/>
  <path id="Path_519" data-name="Path 519" d="M80.764,255.8c0,.429.228.776.509.776H97.12c.281,0,.509-.347.509-.776s-.228-.776-.509-.776H81.273C80.992,255.024,80.764,255.372,80.764,255.8Z" transform="translate(-72.898 -225.633)" fill="#0260c7"/>
  <path id="Path_521" data-name="Path 521" d="M53.82,337.434a.779.779,0,1,0-.779-.779A.779.779,0,0,0,53.82,337.434Z" transform="translate(-48.044 -302.118)" fill="#cd1813"/>
  <path id="Path_522" data-name="Path 522" d="M53.82,256.554a.779.779,0,1,0-.779-.779A.779.779,0,0,0,53.82,256.554Z" transform="translate(-48.044 -225.608)" fill="#cd1813"/>
  <path id="Path_525" data-name="Path 525" d="M53.82,418.315a.779.779,0,1,0-.779-.779A.779.779,0,0,0,53.82,418.315Z" transform="translate(-48.044 -375.814)" fill="#cd1813"/>
  <path id="Path_527" data-name="Path 527" d="M63.179,12.224a5.366,5.366,0,0,1-.752-1.116,5.657,5.657,0,0,1-.28-1.386,4.328,4.328,0,0,0-.963-2.67,4.33,4.33,0,0,0-2.67-.963,5.658,5.658,0,0,1-1.386-.28,5.361,5.361,0,0,1-1.116-.752,5.846,5.846,0,0,0-1.855-1.119V3.7a3.708,3.708,0,0,0-3.7-3.7H18.121a3.709,3.709,0,0,0-3.7,3.7v3a.776.776,0,1,0,1.552,0v-3a2.154,2.154,0,0,1,2.152-2.152H50.453A2.155,2.155,0,0,1,52.606,3.7v.235a5.848,5.848,0,0,0-1.854,1.119,5.367,5.367,0,0,1-1.116.752,5.668,5.668,0,0,1-1.386.28,4.329,4.329,0,0,0-2.67.963,4.329,4.329,0,0,0-.963,2.67,5.658,5.658,0,0,1-.28,1.386,5.362,5.362,0,0,1-.752,1.116,4.355,4.355,0,0,0-1.237,2.63,4.355,4.355,0,0,0,1.237,2.63,5.366,5.366,0,0,1,.752,1.116,5.657,5.657,0,0,1,.28,1.386,4.328,4.328,0,0,0,.963,2.67,4.329,4.329,0,0,0,2.67.963c.272.034.536.067.779.112V35.462a1.192,1.192,0,0,0,1.927.938l1.65-1.292V49.28a2.154,2.154,0,0,1-2.152,2.152H18.121a2.155,2.155,0,0,1-2.152-2.152V10.118a.776.776,0,1,0-1.552,0V49.279a3.709,3.709,0,0,0,3.7,3.7H50.453a3.709,3.709,0,0,0,3.7-3.7V35.108l1.65,1.292a1.192,1.192,0,0,0,1.928-.938V26.8a.776.776,0,0,0-1.552,0v7.922L54.12,33.108a1.193,1.193,0,0,0-1.474,0l-2.065,1.617V24.516l.17.134a4.356,4.356,0,0,0,2.631,1.237,4.357,4.357,0,0,0,2.63-1.237,5.369,5.369,0,0,1,1.116-.752,5.668,5.668,0,0,1,1.386-.28,4.33,4.33,0,0,0,2.67-.963,4.329,4.329,0,0,0,.963-2.67,5.662,5.662,0,0,1,.28-1.386,5.362,5.362,0,0,1,.752-1.116,4.355,4.355,0,0,0,1.237-2.63,4.356,4.356,0,0,0-1.237-2.63Zm-1.218,4.3a6.5,6.5,0,0,0-.968,1.484,6.826,6.826,0,0,0-.386,1.79,3.211,3.211,0,0,1-.52,1.762,3.212,3.212,0,0,1-1.763.52,6.828,6.828,0,0,0-1.79.386,6.5,6.5,0,0,0-1.484.968,3.2,3.2,0,0,1-1.668.9,3.2,3.2,0,0,1-1.668-.9,6.505,6.505,0,0,0-1.484-.968c-.037-.016-.167-.065-.2-.074a7.721,7.721,0,0,0-1.595-.313,3.212,3.212,0,0,1-1.763-.52,3.211,3.211,0,0,1-.52-1.762,6.828,6.828,0,0,0-.386-1.79,6.505,6.505,0,0,0-.968-1.484,3.2,3.2,0,0,1-.9-1.668,3.2,3.2,0,0,1,.9-1.668,6.5,6.5,0,0,0,.968-1.484,6.822,6.822,0,0,0,.386-1.79,3.211,3.211,0,0,1,.52-1.762,3.212,3.212,0,0,1,1.763-.52,6.828,6.828,0,0,0,1.79-.386,6.5,6.5,0,0,0,1.484-.968,3.211,3.211,0,0,1,1.665-.9h.006a3.211,3.211,0,0,1,1.665.9,6.505,6.505,0,0,0,1.484.968,6.824,6.824,0,0,0,1.79.386,3.211,3.211,0,0,1,1.763.52,3.21,3.21,0,0,1,.52,1.762,6.827,6.827,0,0,0,.386,1.79,6.505,6.505,0,0,0,.968,1.484,3.2,3.2,0,0,1,.9,1.668,3.2,3.2,0,0,1-.9,1.668Z" transform="translate(-14.416 0)" fill="#0260c7"/>
  <path id="Path_528" data-name="Path 528" d="M346.59,89.7l-2.641-.747-1.527-2.281a.98.98,0,0,0-1.629,0l-1.527,2.281-2.641.747a.98.98,0,0,0-.5,1.549l1.7,2.157-.105,2.742a.98.98,0,0,0,1.318.958l2.576-.948,2.576.948a.98.98,0,0,0,1.318-.958L345.4,93.41l1.7-2.157a.98.98,0,0,0-.5-1.549Zm-2.544,2.912a.982.982,0,0,0-.209.644l.081,2.1-1.972-.725a.982.982,0,0,0-.677,0l-1.972.725.081-2.1a.983.983,0,0,0-.209-.643l-1.3-1.651,2.022-.572a.982.982,0,0,0,.547-.4l1.169-1.746,1.169,1.746a.983.983,0,0,0,.548.4l2.022.572Z" transform="translate(-302.641 -77.316)" fill="#0260c7"/>
</svg>
