<svg xmlns="http://www.w3.org/2000/svg" xmlns:xlink="http://www.w3.org/1999/xlink" width="169" height="24" viewBox="0 0 169 24">
  <defs>
    <clipPath id="clip-path">
      <rect width="169" height="24" fill="none"/>
    </clipPath>
  </defs>
  <g id="star-icons" clip-path="url(#clip-path)">
    <g transform="translate(-874 -5170)">
      <path id="Polygon_1" data-name="Polygon 1" d="M12.1,1.859a1,1,0,0,1,1.8,0l2.762,5.707a1,1,0,0,0,.779.557l6.394.78a1,1,0,0,1,.552,1.732l-4.66,4.242a1,1,0,0,0-.308.933l1.207,6.12a1,1,0,0,1-1.452,1.075l-5.7-3.047a1,1,0,0,0-.943,0l-5.7,3.047A1,1,0,0,1,5.374,21.93l1.207-6.12a1,1,0,0,0-.308-.933l-4.66-4.242A1,1,0,0,1,2.165,8.9l6.394-.78a1,1,0,0,0,.779-.557Z" transform="translate(874 5170)" fill="#e4cc2e"/>
    </g>
    <g transform="translate(-838 -5170)">
      <path id="Polygon_1-2" data-name="Polygon 1" d="M12.1,1.859a1,1,0,0,1,1.8,0l2.762,5.707a1,1,0,0,0,.779.557l6.394.78a1,1,0,0,1,.552,1.732l-4.66,4.242a1,1,0,0,0-.308.933l1.207,6.12a1,1,0,0,1-1.452,1.075l-5.7-3.047a1,1,0,0,0-.943,0l-5.7,3.047A1,1,0,0,1,5.374,21.93l1.207-6.12a1,1,0,0,0-.308-.933l-4.66-4.242A1,1,0,0,1,2.165,8.9l6.394-.78a1,1,0,0,0,.779-.557Z" transform="translate(874 5170)" fill="#e4cc2e"/>
    </g>
    <g transform="translate(-802 -5170)">
      <path id="Polygon_1-3" data-name="Polygon 1" d="M12.1,1.859a1,1,0,0,1,1.8,0l2.762,5.707a1,1,0,0,0,.779.557l6.394.78a1,1,0,0,1,.552,1.732l-4.66,4.242a1,1,0,0,0-.308.933l1.207,6.12a1,1,0,0,1-1.452,1.075l-5.7-3.047a1,1,0,0,0-.943,0l-5.7,3.047A1,1,0,0,1,5.374,21.93l1.207-6.12a1,1,0,0,0-.308-.933l-4.66-4.242A1,1,0,0,1,2.165,8.9l6.394-.78a1,1,0,0,0,.779-.557Z" transform="translate(874 5170)" fill="#e4cc2e"/>
    </g>
    <g transform="translate(-766 -5170)">
      <path id="Polygon_1-4" data-name="Polygon 1" d="M12.1,1.859a1,1,0,0,1,1.8,0l2.762,5.707a1,1,0,0,0,.779.557l6.394.78a1,1,0,0,1,.552,1.732l-4.66,4.242a1,1,0,0,0-.308.933l1.207,6.12a1,1,0,0,1-1.452,1.075l-5.7-3.047a1,1,0,0,0-.943,0l-5.7,3.047A1,1,0,0,1,5.374,21.93l1.207-6.12a1,1,0,0,0-.308-.933l-4.66-4.242A1,1,0,0,1,2.165,8.9l6.394-.78a1,1,0,0,0,.779-.557Z" transform="translate(874 5170)" fill="#e4cc2e"/>
    </g>
    <g transform="translate(-730 -5170)">
      <path id="Polygon_1-5" data-name="Polygon 1" d="M12.1,1.859a1,1,0,0,1,1.8,0l2.762,5.707a1,1,0,0,0,.779.557l6.394.78a1,1,0,0,1,.552,1.732l-4.66,4.242a1,1,0,0,0-.308.933l1.207,6.12a1,1,0,0,1-1.452,1.075l-5.7-3.047a1,1,0,0,0-.943,0l-5.7,3.047A1,1,0,0,1,5.374,21.93l1.207-6.12a1,1,0,0,0-.308-.933l-4.66-4.242A1,1,0,0,1,2.165,8.9l6.394-.78a1,1,0,0,0,.779-.557Z" transform="translate(874 5170)" fill="#e4cc2e"/>
    </g>
  </g>
</svg>
