<svg xmlns="http://www.w3.org/2000/svg" width="30" height="30" viewBox="0 0 30 30">
  <g id="twitter-icon" transform="translate(-650 -4680)">
    <rect id="Rectangle_30" data-name="Rectangle 30" width="30" height="30" rx="15" transform="translate(650 4680)" fill="none" opacity="0.1"/>
    <g id="twitter_1_" data-name="twitter (1)" transform="translate(656 4639.688)">
      <g id="Group_3162" data-name="Group 3162" transform="translate(0 48)">
        <path id="Path_508" data-name="Path 508" d="M18,49.731a7.694,7.694,0,0,1-2.126.583,3.669,3.669,0,0,0,1.623-2.04,7.375,7.375,0,0,1-2.34.893,3.69,3.69,0,0,0-6.383,2.523,3.8,3.8,0,0,0,.086.841,10.445,10.445,0,0,1-7.606-3.86A3.691,3.691,0,0,0,2.387,53.6,3.644,3.644,0,0,1,.72,53.15v.04a3.707,3.707,0,0,0,2.957,3.626,3.683,3.683,0,0,1-.968.121,3.263,3.263,0,0,1-.7-.063,3.725,3.725,0,0,0,3.448,2.571A7.415,7.415,0,0,1,.883,61.02,6.913,6.913,0,0,1,0,60.969a10.389,10.389,0,0,0,5.661,1.656,10.431,10.431,0,0,0,10.5-10.5c0-.163-.006-.321-.014-.477A7.362,7.362,0,0,0,18,49.731Z" transform="translate(0 -48)" fill="#fff"/>
      </g>
    </g>
  </g>
</svg>
